{"title":"Prinsessa 2009.x264.AC3[5.1].mkv","uid":5408674,"size":1098481803,"categoryP":"video","categoryS":"movies","magnet":"?xt=urn:btih:70d3ef4d299f373f902ffa41a7ae834bc63674c7&amp;dn=Prinsessa+2009.x264.AC3%5B5.1%5D.mkv&amp;tr=udp%3A%2F%2Ftracker.openbittorrent.com%3A80&amp;tr=udp%3A%2F%2Fopen.demonii.com%3A1337&amp;tr=udp%3A%2F%2Ftracker.coppersurfer.tk%3A6969&amp;tr=udp%3A%2F%2Fexodus.desync.com%3A6969","seeders":0,"leechers":1,"uploader":"Zen_Bud","files":-1,"time":1267690059,"description":"General\nComplete name                    : Prinsessa.mkv\nFormat                           : Matroska\nFile size                        : 1.02 GiB\nDuration                         : 1h 30mn\nOverall bit rate                 : 1 627 Kbps\n\n\nVideo\nID                               : 1\nFormat                           : AVC\nDuration                         : 1h 30mn\nBit rate                         : 1 146 Kbps\nWidth                            : 720 pixels\nHeight                           : 556 pixels\nDisplay aspect ratio             : 16:9\nOriginal display aspect ratio    : 16:9\nFrame rate                       : 25.000 fps\nResolution                       : 8 bits\nColorimetry                      : 4:2:0\nScan type                        : Progressive\nBits/(Pixel*Frame)               : 0.115\nStream size                      : 738 MiB (70%)\nWriting library                  : x264 core 79\n\nAudio\nID                               : 2\nFormat                           : AC-3\nFormat/Info                      : Audio Coding 3\nCodec ID                         : A_AC3\nDuration                         : 1h 30mn\nBit rate mode                    : Constant\nBit rate                         : 448 Kbps\nChannel(s)                       : 6 channels\nChannel positions                : Front: L C R, Surround: L R, LFE\nSampling rate                    : 48.0 KHz\nStream size                      : 288 MiB (28%)\nLanguage                         : Swedish\n\nText #1\nLanguage                         : Swedish\n\nText #2\nLanguage                         : Norwegian\n\nText #3\nLanguage                         : English\n\nMenu\n00:00:00.000                     : Chapter  1\n\n\n","torrent":{"xt":"urn:btih:70d3ef4d299f373f902ffa41a7ae834bc63674c7","amp;dn":"Prinsessa+2009.x264.AC3%5B5.1%5D.mkv","amp;tr":["udp%3A%2F%2Ftracker.openbittorrent.com%3A80","udp%3A%2F%2Fopen.demonii.com%3A1337","udp%3A%2F%2Ftracker.coppersurfer.tk%3A6969","udp%3A%2F%2Fexodus.desync.com%3A6969"],"infoHash":"70d3ef4d299f373f902ffa41a7ae834bc63674c7","infoHashBuffer":{"type":"Buffer","data":[112,211,239,77,41,159,55,63,144,47,250,65,167,174,131,75,198,54,116,199]},"announce":[],"urlList":[]}}